<?xml version="1.0" encoding="utf-8"?>
<!-- Generator: Adobe Illustrator 25.2.3, SVG Export Plug-In . SVG Version: 6.00 Build 0)  -->
<svg version="1.1" id="Ebene_1" xmlns="http://www.w3.org/2000/svg" xmlns:xlink="http://www.w3.org/1999/xlink" x="0px" y="0px"
	 viewBox="0 0 1920 241.8" style="enable-background:new 0 0 1920 241.8;" xml:space="preserve">
<path d="M1038.2,105c-0.8-4-2.1-8-4.1-11.8c-1.9-3.7-4.3-7.2-7.1-10.3c-5.9-6.5-13.4-11.1-21.6-13.4c-12.6-3.5-26.8-2.3-38.9,3.4
	c-2.3,1.1-4.5,2.3-6.6,3.7c-2.1-1.4-4.3-2.7-6.6-3.7c-12.1-5.7-26.3-6.9-38.9-3.4C906.3,71.9,899,76.5,893,83
	c-2.8,3.1-5.2,6.6-7.1,10.3c-1.9,3.8-3.3,7.7-4.1,11.8c-1.5,8.2-0.8,16.9,2.1,25.3c2.4,6.9,6.1,13.4,10.9,19.5
	c3.7,4.6,8,8.9,13.1,13.3c-1.3,0.4-2.5,0.7-3.6,1l0,0c-0.1,0-0.1,0-0.2,0.1l0,0c-1.8,0.6-3.2,2-3.7,3.9c-0.7,3,1.1,6,4,6.7
	c0.9,0.2,1.7,0.2,2.6,0l0,0h0.1c0.1,0,0.1,0,0.2,0c3.5-0.9,7.5-2.1,11.8-3.4c9.3,6.3,19.4,11.8,29.2,17.2c3.2,1.7,6.2,3.4,9.2,5.1
	l2.7,1.5l2.7-1.5c3-1.7,6-3.3,9.2-5.1c9.7-5.3,19.6-10.7,28.8-17c4.6,1.4,8.8,2.6,12.4,3.6l0,0c0,0,0,0,0.1,0c3,0.7,6-1.1,6.7-4
	c0.7-2.9-1-5.9-3.9-6.7l0,0c-1.3-0.4-2.7-0.7-4.2-1.2c5.3-4.4,9.7-8.8,13.4-13.5c4.8-6.1,8.5-12.7,10.9-19.5
	C1039,121.9,1039.7,113.1,1038.2,105z M953.5,102.4c1.4-4.1,3.6-7.9,6.5-11.1c2.9,3.3,5.2,7,6.5,11.1c3.5,10.5,3.1,19.5-1.3,27.5
	c-1.4,2.5-3.1,5-5.3,7.4c-2.1-2.3-3.8-4.7-5.2-7.2C950.4,122,950,112.9,953.5,102.4z M894.4,126.6c-2.3-6.6-2.9-13.4-1.7-19.6
	c2.4-12.6,12.4-23.3,24.9-26.8c3.8-1,7.7-1.6,11.7-1.6c6.7,0,13.4,1.5,19.6,4.3c0.9,0.4,1.8,0.9,2.6,1.4c-3.8,4.3-6.6,9.2-8.4,14.6
	c-4.4,13.4-3.7,25.6,2.1,36.4c1.7,3.2,3.9,6.3,6.6,9.2c-3.5,2.5-7.4,4.8-11.9,7c-6.1,3-12.7,5.5-18.9,7.6
	C908.8,150.4,899.1,140.1,894.4,126.6z M966.6,178.9c-2.2,1.2-4.4,2.4-6.6,3.6c-2.2-1.2-4.4-2.4-6.6-3.6
	c-7.1-3.9-14.3-7.9-21.2-12.1c4.2-1.6,8.3-3.4,12.4-5.4c5.8-2.9,10.9-6,15.3-9.3c4.4,3.4,9.6,6.6,15.5,9.6c3.9,2,8,3.7,12,5.3
	C980.7,171.1,973.6,175,966.6,178.9z M1025.6,126.6c-4.7,13.5-14.7,23.9-26.8,32.7c-6.1-2.1-12.5-4.6-18.5-7.6
	c-4.6-2.3-8.6-4.7-12.1-7.2c2.7-3,5-6.1,6.8-9.4c5.8-10.7,6.5-22.9,2-36.2c-1.8-5.4-4.6-10.3-8.4-14.6c0.9-0.5,1.7-0.9,2.6-1.4
	c9.8-4.6,21.2-5.6,31.2-2.8c12.5,3.5,22.5,14.2,24.9,26.8C1028.5,113.3,1027.9,120.1,1025.6,126.6z"/>
</svg>
